<?xml version="1.0" standalone="no"?>
<!DOCTYPE svg PUBLIC "-//W3C//DTD SVG 20010904//EN"
 "http://www.w3.org/TR/2001/REC-SVG-20010904/DTD/svg10.dtd">
<svg version="1.0" xmlns="http://www.w3.org/2000/svg"
 width="73.000000pt" height="44.000000pt" viewBox="0 0 73.000000 44.000000"
 preserveAspectRatio="xMidYMid meet">

<g transform="translate(0.000000,44.000000) scale(0.100000,-0.100000)"
fill="#000000" stroke="none">
<path d="M110 198 c0 -108 1 -112 17 -89 16 23 17 23 24 5 4 -10 8 -30 8 -43
1 -23 0 -23 -24 -7 -24 16 -25 16 -25 -4 0 -22 33 -60 53 -60 7 0 23 7 35 16
26 18 30 69 7 94 -14 16 -13 18 12 28 15 5 47 15 69 21 23 6 48 19 55 28 13
15 8 16 -63 10 -77 -7 -92 -1 -63 23 13 11 11 15 -14 29 -17 9 -44 26 -60 39
l-31 23 0 -113z"/>
</g>
</svg>
